<?xml version="1.0" encoding="UTF-8"?>
<svg xmlns="http://www.w3.org/2000/svg" xmlns:xlink="http://www.w3.org/1999/xlink" viewBox="0 0 259.58 265.34">
  <defs>
    <style>
      .cls-1 {
        fill: #00bdff;
      }

      .cls-2 {
        fill: #ffac23;
      }

      .cls-3 {
        fill: #dafaff;
      }

      .cls-4, .cls-5 {
        fill: #fff;
      }

      .cls-6 {
        fill: #fff8ff;
      }

      .cls-7 {
        fill: #ffa100;
      }

      .cls-8 {
        fill: #00e4fc;
      }

      .cls-9 {
        opacity: .33;
      }

      .cls-9, .cls-10, .cls-11, .cls-12, .cls-13 {
        mix-blend-mode: multiply;
      }

      .cls-9, .cls-14, .cls-12 {
        fill: #ffd222;
      }

      .cls-15 {
        fill: url(#Degradado_sin_nombre_2083);
      }

      .cls-16 {
        fill: #0049d1;
      }

      .cls-17 {
        fill: #a4bfff;
      }

      .cls-18 {
        opacity: .9;
      }

      .cls-19 {
        fill: #c71e44;
      }

      .cls-10 {
        fill: #008dca;
        opacity: .09;
      }

      .cls-20 {
        fill: #ffe600;
      }

      .cls-21 {
        isolation: isolate;
      }

      .cls-11 {
        fill: #d9edff;
      }

      .cls-22 {
        fill: #ff7c00;
      }

      .cls-23 {
        fill: #006cea;
      }

      .cls-24 {
        fill: #00fbed;
      }

      .cls-25 {
        fill: #d3e6ff;
      }

      .cls-26 {
        fill: #ffd5b6;
      }

      .cls-27 {
        fill: #ffc822;
      }

      .cls-28 {
        fill: #002e72;
      }

      .cls-29 {
        fill: #3ff8ff;
      }

      .cls-30 {
        fill: #fffb61;
      }

      .cls-31 {
        opacity: .8;
      }

      .cls-32 {
        fill: #ff395f;
      }

      .cls-33 {
        fill: #00123e;
      }

      .cls-34 {
        fill: #ffc922;
      }

      .cls-35 {
        opacity: .48;
      }

      .cls-36 {
        opacity: .34;
      }

      .cls-37 {
        fill: #b1244d;
      }

      .cls-38 {
        fill: #bbeaff;
      }

      .cls-39 {
        fill: #001d4f;
      }

      .cls-40 {
        fill: #00186a;
      }

      .cls-41 {
        fill: #c8f1ff;
      }

      .cls-5 {
        mix-blend-mode: hard-light;
        opacity: .08;
      }

      .cls-42 {
        fill: #ed2c51;
      }

      .cls-43 {
        fill: #ffbd00;
      }

      .cls-44 {
        fill: #ffc000;
      }

      .cls-12 {
        opacity: .46;
      }

      .cls-13 {
        fill: #270d3b;
        opacity: .24;
      }

      .cls-45 {
        fill: #00c7e4;
      }

      .cls-46 {
        fill: #ffb722;
      }

      .cls-47 {
        fill: #022ec6;
      }

      .cls-48 {
        fill: #ffdbae;
      }

      .cls-49 {
        fill: #181f47;
      }

      .cls-50 {
        fill: #ff7f23;
      }

      .cls-51 {
        fill: #ffc400;
      }

      .cls-52 {
        fill: #ffac0c;
      }

      .cls-53 {
        fill: #bfd6ff;
      }

      .cls-54 {
        fill: #ffbc99;
      }

      .cls-55 {
        fill: #ff9723;
      }

      .cls-56 {
        fill: #addfff;
      }

      .cls-57 {
        fill: #00a3f6;
      }

      .cls-58 {
        fill: #008ec9;
      }

      .cls-59 {
        fill: #ffa28e;
      }

      .cls-60 {
        fill: #ffe622;
      }

      .cls-61 {
        fill: #fc0;
      }

      .cls-62 {
        fill: #002d71;
      }

      .cls-63 {
        fill: #ffe538;
      }

      .cls-64 {
        fill: #001329;
      }

      .cls-65 {
        fill: #ff8b99;
      }

      .cls-66 {
        fill: #0ee;
      }

      .cls-67 {
        fill: #0055e4;
      }

      .cls-68 {
        fill: #ffad22;
      }

      .cls-69 {
        fill: #00285c;
      }

      .cls-70 {
        fill: none;
        stroke: #fff;
        stroke-linecap: round;
        stroke-linejoin: round;
        stroke-width: 4px;
      }
    </style>
    <linearGradient id="Degradado_sin_nombre_2083" data-name="Degradado sin nombre 2083" x1="63.73" y1="204.64" x2="237.75" y2="204.64" gradientUnits="userSpaceOnUse">
      <stop offset="0" stop-color="#d3f1f9"/>
      <stop offset=".12" stop-color="#c8e9fa"/>
      <stop offset=".43" stop-color="#b2dbfc"/>
      <stop offset=".73" stop-color="#a5d2fe"/>
      <stop offset="1" stop-color="#a1cfff"/>
    </linearGradient>
  </defs>
  <g class="cls-21">
    <g id="Layer_2" data-name="Layer 2">
      <g id="Layer_1-2" data-name="Layer 1">
        <g>
          <path class="cls-23" d="M49.87,65.85c4.93-.48,9.28,2.44,11,6.68v-5.21c0-7.27,5.26-13.7,12.47-14.59,7.9-.97,14.78,4.64,15.88,12.07,2.15-1.97,5.08-3.1,8.27-2.8,5.58,.53,9.71,5.5,9.71,11.11v2.73c1.38-1.28,3.35-1.93,5.44-1.48,2.84,.61,4.78,3.27,4.78,6.18h0c0,3.66-2.96,6.62-6.62,6.62H47.86c-4.23,0-7.66-3.43-7.66-7.67v-2.58c0-5.59,4.11-10.51,9.68-11.05Z"/>
          <path class="cls-23" d="M231.92,108.49c1.44-.14,2.7,.71,3.2,1.95v-1.52c0-2.12,1.53-3.99,3.63-4.25,2.3-.28,4.31,1.35,4.62,3.51,.62-.57,1.48-.9,2.41-.82,1.63,.15,2.83,1.6,2.83,3.23v.79c.4-.37,.97-.56,1.58-.43,.83,.18,1.39,.95,1.39,1.8h0c0,1.06-.86,1.93-1.93,1.93h-18.33c-1.23,0-2.23-1-2.23-2.23v-.75c0-1.63,1.2-3.06,2.82-3.22Z"/>
          <path class="cls-23" d="M193.83,52.6c3.5-.49,6.63,1.54,7.84,4.53v-3.49c0-5.11,3.77-9.63,8.86-10.08,5.26-.47,9.79,3.31,10.53,8.29,1.31-1.2,3.05-1.95,4.95-1.95,4.04,0,7.34,3.62,7.34,7.66v1.84c.96-.89,2.34-1.34,3.81-.99,1.9,.45,3.18,2.25,3.18,4.21h0c0,2.5-2.02,4.52-4.52,4.52h-43.05c-2.89,0-5.23-2.34-5.23-5.23v-1.76c0-3.7,2.63-7.02,6.3-7.53Z"/>
          <g>
            <g>
              <g>
                <path class="cls-6" d="M83.07,81.23H218.33c3.11,0,5.63,2.52,5.63,5.63v77.04c0,3.11-2.52,5.63-5.63,5.63H83.07c-3.11,0-5.63-2.52-5.63-5.63V86.86c0-3.11,2.52-5.63,5.63-5.63Z"/>
                <path class="cls-40" d="M217.01,82.61c3.08,0,5.58,2.5,5.58,5.58v74.38c0,3.08-2.5,5.58-5.58,5.58H84.39c-3.08,0-5.58-2.5-5.58-5.58V88.19c0-3.08,2.5-5.58,5.58-5.58H217.01"/>
                <rect class="cls-32" x="82.26" y="86.11" width="136.87" height="76.36"/>
                <g>
                  <path class="cls-34" d="M129.67,114.22c0,7.69-6.23,13.93-13.93,13.93s-13.93-6.23-13.93-13.93,6.23-13.93,13.93-13.93,13.93,6.23,13.93,13.93Z"/>
                  <path class="cls-29" d="M115.75,114.34l-11.91,18.1c3.43,2.22,7.52,3.52,11.91,3.52v-21.62Z"/>
                  <path class="cls-16" d="M133.02,114.45c0-.1,.01-.19,.01-.29,0-9.55-7.74-17.28-17.28-17.28v17.57h17.27Z"/>
                </g>
                <g>
                  <circle class="cls-37" cx="150.7" cy="136.88" r="3.17"/>
                  <path class="cls-37" d="M149.04,130.08l-1.56-12.29c-.23-1.78,1.03-3.4,2.81-3.63,1.78-.23,3.4,1.03,3.63,2.81,.03,.27,.03,.56,0,.82l-1.56,12.29c-.12,.92-.95,1.57-1.87,1.45-.77-.1-1.36-.71-1.45-1.45Z"/>
                </g>
                <polygon class="cls-70" points="123.37 146.71 178.03 146.71 150.7 99.17 123.37 146.71"/>
                <g>
                  <rect class="cls-25" x="204.67" y="107.8" width="11.01" height="4.9"/>
                  <rect class="cls-34" x="192.71" y="102.76" width="22.97" height="2.45"/>
                  <rect class="cls-34" x="192.71" y="98.38" width="22.97" height="2.45"/>
                  <rect class="cls-16" x="192.71" y="94.01" width="22.97" height="2.45"/>
                  <rect class="cls-29" x="192.71" y="89.63" width="22.97" height="2.45"/>
                  <rect class="cls-34" x="210.54" y="116.42" width="5.14" height="2.45"/>
                  <rect class="cls-34" x="199.42" y="116.42" width="5.14" height="2.45"/>
                  <rect class="cls-29" x="192.35" y="116.42" width="2.57" height="2.45"/>
                </g>
              </g>
              <g>
                <path class="cls-13" d="M232.31,239.04l-163.16,.24c-3.8,0-6.12-2.7-5.21-5.98l16.29-58.35c.6-2.14,3.5-3.85,6.5-3.86l128.57-.19c2.99,0,5.89,1.7,6.46,3.84l15.81,58.3c.89,3.28-1.46,5.99-5.26,5.99Z"/>
                <path class="cls-15" d="M232.3,238.12l-163.16,.26c-3.8,0-6.12-2.66-5.21-5.9l16.3-57.58c.6-2.11,3.5-3.8,6.5-3.81l128.57-.2c2.99,0,5.89,1.68,6.46,3.78l15.8,57.53c.89,3.23-1.46,5.91-5.26,5.92Z"/>
                <path class="cls-25" d="M232.3,236.56l-163.16,.26c-3.8,0-6.12-2.66-5.21-5.9l16.3-57.58c.6-2.11,3.5-3.8,6.5-3.81l128.57-.2c2.99,0,5.89,1.68,6.46,3.78l15.8,57.53c.89,3.23-1.46,5.91-5.26,5.92Z"/>
                <path class="cls-33" d="M214.14,183.19H87.82l-.71,2.91h127.71l-.69-2.91Zm-1.76-7.49H89.64l-.71,2.91h124.13l-.69-2.91Zm.88,3.75H88.73l-.71,2.91h125.92l-.69-2.91Zm1.76,7.49H86.91l-.71,2.91H215.7l-.69-2.91Zm.88,3.75H85.99l-.71,2.92H216.58l-.69-2.92Zm-130.14,13.23l130.25-.2c1.51,0,2.62-1.41,2.28-2.88l-.62-2.65H84.17l-.69,2.84c-.36,1.48,.76,2.9,2.28,2.9Zm131.02-9.48H85.08l-.71,2.91H217.46l-.69-2.91Zm3.35,14.23l-.39-1.67c-.19-.82-.92-1.4-1.76-1.4l-134.24,.21c-.83,0-1.56,.57-1.76,1.38l-.41,1.67c-.28,1.14,.59,2.24,1.76,2.24l135.04-.21c1.17,0,2.03-1.09,1.76-2.22Z"/>
                <path class="cls-53" d="M180.55,236.64l-59.65,.09,1.64-16.67c.29-2.99,2.81-5.27,5.81-5.28l44.88-.07c3.03,0,5.57,2.31,5.84,5.33l1.49,16.6Z"/>
                <polygon class="cls-17" points="180.55 236.64 120.89 236.73 121.29 232.69 180.19 232.59 180.55 236.64"/>
              </g>
            </g>
            <path class="cls-5" d="M133.94,82.61l-55.13,55.13v24.84c0,3.08,2.5,5.58,5.58,5.58h46.06l85.55-85.55h-82.06Zm48.36,85.55l40.28-40.28v-5.9l-46.18,46.18h5.9Zm40.25-80.28l-81.67,80.28h28.5l53.2-53.2v-26.76c0-.11-.03-.21-.03-.32Z"/>
          </g>
          <g>
            <g class="cls-36">
              <polygon class="cls-45" points="151 119.49 95.87 94.38 95.87 28.33 151 53.44 151 119.49"/>
              <polygon class="cls-58" points="151 119.49 206.14 94.38 206.14 28.33 151 53.44 151 119.49"/>
              <polygon class="cls-8" points="206.14 28.33 151 53.7 95.87 28.33 151 3.21 206.14 28.33"/>
            </g>
            <g class="cls-35">
              <polygon class="cls-45" points="151 105.21 107.84 85.55 107.84 33.85 151 53.51 151 105.21"/>
              <polygon class="cls-58" points="151 105.21 194.16 85.55 194.16 33.85 151 53.51 151 105.21"/>
              <polygon class="cls-8" points="194.16 33.85 151 53.71 107.84 33.85 151 14.19 194.16 33.85"/>
            </g>
            <g>
              <g class="cls-31">
                <polygon class="cls-45" points="206.74 30.87 203.69 29.48 203.69 25.83 206.74 27.22 206.74 30.87"/>
                <polygon class="cls-58" points="206.74 30.87 209.78 29.48 209.78 25.83 206.74 27.22 206.74 30.87"/>
                <polygon class="cls-8" points="209.78 25.83 206.74 27.23 203.69 25.83 206.74 24.44 209.78 25.83"/>
              </g>
              <g class="cls-31">
                <polygon class="cls-45" points="151 56.91 147.96 55.52 147.96 51.88 151 53.26 151 56.91"/>
                <polygon class="cls-58" points="151 56.91 154.05 55.52 154.05 51.88 151 53.26 151 56.91"/>
                <polygon class="cls-8" points="154.05 51.88 151 53.28 147.96 51.88 151 50.49 154.05 51.88"/>
              </g>
              <g class="cls-31">
                <polygon class="cls-45" points="95.87 30.87 92.82 29.48 92.82 25.83 95.87 27.22 95.87 30.87"/>
                <polygon class="cls-58" points="95.87 30.87 98.91 29.48 98.91 25.83 95.87 27.22 95.87 30.87"/>
                <polygon class="cls-8" points="98.91 25.83 95.87 27.23 92.82 25.83 95.87 24.44 98.91 25.83"/>
              </g>
            </g>
            <g class="cls-31">
              <polygon class="cls-45" points="151 6.42 147.96 5.04 147.96 1.39 151 2.77 151 6.42"/>
              <polygon class="cls-58" points="151 6.42 154.05 5.04 154.05 1.39 151 2.77 151 6.42"/>
              <polygon class="cls-8" points="154.05 1.39 151 2.79 147.96 1.39 151 0 154.05 1.39"/>
            </g>
            <g>
              <g class="cls-31">
                <polygon class="cls-45" points="206.74 97.98 203.69 96.6 203.69 92.95 206.74 94.34 206.74 97.98"/>
                <polygon class="cls-58" points="206.74 97.98 209.78 96.6 209.78 92.95 206.74 94.34 206.74 97.98"/>
                <polygon class="cls-8" points="209.78 92.95 206.74 94.35 203.69 92.95 206.74 91.56 209.78 92.95"/>
              </g>
              <g class="cls-31">
                <polygon class="cls-45" points="95.87 97.98 92.82 96.6 92.82 92.95 95.87 94.34 95.87 97.98"/>
                <polygon class="cls-58" points="95.87 97.98 98.91 96.6 98.91 92.95 95.87 94.34 95.87 97.98"/>
                <polygon class="cls-8" points="98.91 92.95 95.87 94.35 92.82 92.95 95.87 91.56 98.91 92.95"/>
              </g>
            </g>
          </g>
          <g>
            <g class="cls-36">
              <polygon class="cls-45" points="233.08 42.67 214 33.98 214 11.12 233.08 19.81 233.08 42.67"/>
              <polygon class="cls-58" points="233.08 42.67 252.16 33.98 252.16 11.12 233.08 19.81 233.08 42.67"/>
              <polygon class="cls-8" points="252.16 11.12 233.08 19.9 214 11.12 233.08 2.43 252.16 11.12"/>
            </g>
            <g class="cls-35">
              <polygon class="cls-45" points="233.08 37.73 218.15 30.93 218.15 13.03 233.08 19.84 233.08 37.73"/>
              <polygon class="cls-58" points="233.08 37.73 248.02 30.93 248.02 13.03 233.08 19.84 233.08 37.73"/>
              <polygon class="cls-8" points="248.02 13.03 233.08 19.91 218.15 13.03 233.08 6.23 248.02 13.03"/>
            </g>
          </g>
          <g>
            <g class="cls-36">
              <polygon class="cls-45" points="75.96 48.7 65.76 44.05 65.76 31.82 75.96 36.47 75.96 48.7"/>
              <polygon class="cls-58" points="75.96 48.7 86.17 44.05 86.17 31.82 75.96 36.47 75.96 48.7"/>
              <polygon class="cls-8" points="86.17 31.82 75.96 36.52 65.76 31.82 75.96 27.17 86.17 31.82"/>
            </g>
            <g class="cls-35">
              <polygon class="cls-45" points="75.96 46.06 67.97 42.42 67.97 32.85 75.96 36.49 75.96 46.06"/>
              <polygon class="cls-58" points="75.96 46.06 83.95 42.42 83.95 32.85 75.96 36.49 75.96 46.06"/>
              <polygon class="cls-8" points="83.95 32.85 75.96 36.52 67.97 32.85 75.96 29.21 83.95 32.85"/>
            </g>
          </g>
          <g>
            <path class="cls-44" d="M91.78,149.11l-.82-8.67,6.91,7.32c-1.87,.58-3.9,1.05-6.09,1.36Z"/>
            <g>
              <path class="cls-40" d="M119.41,143.26l-6.89,12.63,11.76,.04,6.67-12.28c.23-.42-.08-.93-.55-.93l-10.02-.02c-.4,0-.76,.22-.95,.57Z"/>
              <polygon class="cls-27" points="120.02 143.55 113.76 155.03 123.98 155.06 130.22 143.57 120.02 143.55"/>
              <path class="cls-10" d="M78.3,224.64c0,3.39,7.39,6.14,16.51,6.14s16.51-2.75,16.51-6.14-7.39-6.14-16.51-6.14-16.51,2.75-16.51,6.14Z"/>
              <g>
                <polygon class="cls-4" points="99.3 132.43 99.5 133.75 98.26 133.88 97.78 132.98 99.3 132.43"/>
                <path class="cls-26" d="M96.43,138.09v-1.98s1.2,.22,3.07-.55v-1.81s-.81-.14-1.28-.71l1.28-.47-.24-.95,1.03-.6-1.65-2.82-.14-1.66-1.04,.71-.47,3.04-.55-1.19s-.98-.54-1.35,.43c-.31,.82,.22,1.8,1.35,1.76l-1.62,3.27-3.62,.2v3.35h5.24Z"/>
                <path class="cls-49" d="M88.75,124.99c4.29,.28,5.94-.65,7.26-.81,.41,2.43-.53,1.6,1.44,3.12l-.47,3.31-.55-1.51c-.47-.26-1.55-.1-1.4,.98,.17,1.2,1.4,1.2,1.4,1.2l-1.62,3.27-2.43,1.33-1.19-1.13c-6.95-4.33-2.44-9.76-2.44-9.76h0Z"/>
                <path class="cls-1" d="M90.22,138.09s2.69-1.59,7.1,0l1.03,1.96-8.43-.44,.31-1.52Z"/>
                <polygon class="cls-65" points="98.64 128.19 99.26 131.61 100.29 131.01 98.64 128.19"/>
                <path class="cls-1" d="M86.52,141.4s-3.76,6.99-6.17,15.33l4,13.8,5.59-15.47-3.42-13.66Z"/>
                <path class="cls-67" d="M86.52,141.4s4.67-4.87,14.33-.95l1.6,30.07h-18.1s-.87-17.21,2.17-29.13Z"/>
                <path class="cls-26" d="M120.67,155.72l2.85-2.73,.06,1.39,3.04-2.6s-.11,4.04-4.3,5.78l-1.65-1.85Z"/>
                <path class="cls-26" d="M121.38,155.04l1.54-1.76,1.54-1.76s.51,.39,.15,1.11l-1.04,1.76"/>
                <path class="cls-1" d="M100.85,140.46s2.19,8.56,8.35,13.58c4.52,3.68,9.86,2.27,9.86,2.27l2.34,2.68s-6.43,3.85-15.37,.45c-7.13-2.71-8.92-9.76-8.92-9.76,0,0-1.13-8.02,3.73-9.23Z"/>
                <rect class="cls-29" x="119.99" y="155.21" width="2" height="3.56" transform="translate(315.41 195.57) rotate(138.84)"/>
                <path class="cls-64" d="M96.97,223.82v.72c0,.3,.24,.54,.54,.54h10.83s-1.51-2.78-6.75-2.96c-2.76,.53-4.61,1.7-4.61,1.7Z"/>
                <path class="cls-64" d="M80.75,222.77v1.07c0,.36,.29,.66,.66,.66h1.47c.23,0,.46-.04,.68-.12l5.97-2.25s-1.6-1.86-5.16-.68l-3.62,1.32Z"/>
                <path class="cls-62" d="M84.35,170.53l-.87,28.67s-.63,1.6-1.37,4.42c-1.71,6.48-1.43,19.37-1.43,19.37,0,0,1.61,1.51,3.69-.21l5.55-24.98,3.5-16.83,2.31,16.24s-1.42,3.75-.8,10.2c.39,4.02,2.05,16.41,2.05,16.41,0,0,3.05-.22,4.34-1.64l1.14-29.8v-21.84h-18.1Z"/>
                <polygon class="cls-39" points="93.41 180.97 91.99 178.38 86.47 175.34 89.79 178.78 89.08 201.55 93.41 180.97"/>
                <polygon class="cls-28" points="102.46 170.53 84.29 172.6 84.35 170.53 102.46 170.53"/>
              </g>
            </g>
            <path class="cls-49" d="M97.45,127.29s3.74,0,3.74-5.15c0,0-1.1,1.54-5.12-.36l1.39-.02s-2.95-2.03-6.82,.65l.56-.78s-2.61,.27-2.44,3.35c1.88,1.89,4.6,1.54,4.6,1.54l4.1,.76Z"/>
          </g>
          <g>
            <g>
              <ellipse class="cls-10" cx="18.89" cy="225.31" rx="9" ry="4"/>
              <path class="cls-38" d="M28.17,219.94l-1.59,.95c-1.38-1.28-4.3-2.16-7.69-2.16s-6.32,.88-7.69,2.16l-1.59-.89,.81,5.13h0c.49,1.89,4.1,3.35,8.47,3.35s7.98-1.47,8.47-3.35h0s.81-5.18,.81-5.18Z"/>
              <path class="cls-41" d="M11.79,223.6v1.99s1.32,1.24,4.54,1.43v-1.99s-2.63-.19-4.54-1.43Z"/>
              <path class="cls-41" d="M24.51,224.25l-.17,2.19c1.23-.46,1.87-1.13,1.87-1.13l.28-2.08c-.63,.46-1.32,.78-1.98,1.02Z"/>
              <path class="cls-3" d="M28.17,219.94c0,2.28-4.16,4.13-9.28,4.13s-9.28-1.85-9.28-4.13,4.16-4.13,9.28-4.13,9.28,1.85,9.28,4.13Z"/>
              <path class="cls-56" d="M26.72,219.52c0,1.93-3.51,3.49-7.84,3.49s-7.84-1.56-7.84-3.49,3.51-3.49,7.84-3.49,7.84,1.56,7.84,3.49Z"/>
            </g>
            <path class="cls-24" d="M12.66,210.45s-5.2-13.22-3.06-15.87c2.14-2.65,6.63,12.16,6.63,12.16,0,0-.93-12,1.32-12.48,2.25-.48,2.91,5.74,2.91,5.74,0,0,2.25-5.98,4.1-5.77,1.85,.21-.93,10-.93,10,0,0,1.4-3.07,3.08-3.45,1.68-.38-2.68,15.03-2.68,15.03l-5.35-.75"/>
            <path class="cls-61" d="M12.65,219.94s-3.99-2.11-3.62-4.13c.38-2.03,4.09,.7,4.09,.7,0,0-6.98-9.33,3.09-14.88,9.08-5.01,7.28,13.62,7.28,13.62,0,0,2.05-2.54,4.13-1.99,2.68,.71-2.48,6.67-2.48,6.67,0,0-4.36,.39-12.49,0Z"/>
            <path class="cls-43" d="M14.67,221.11s-3.61-2.19-2.58-3.4c1.03-1.21,3.1,1.01,3.1,1.01,0,0-3.32-8.1-.96-10.17,2.36-2.07,4.66,7.25,4.66,7.25,0,0,.07-6.14,2.21-6.21,2.14-.07,.66,8.56,.66,8.56,0,0,1.7-5.83,3.17-5.68,1.48,.15-1.26,6.87-1.26,6.87,0,0,.74-1.3,1.69-1.11,.95,.19-1.25,2.88-1.25,2.88,0,0-3.8,1.67-9.45,0Z"/>
          </g>
          <g>
            <path class="cls-10" d="M21.14,190.67c0,2.18,4.76,3.96,10.63,3.96s10.63-1.77,10.63-3.96-4.76-3.96-10.63-3.96-10.63,1.77-10.63,3.96Z"/>
            <g>
              <g>
                <g>
                  <g>
                    <path class="cls-26" d="M44.75,108.19s-4.15-.38-9.14,2.82c0,0,13.39,11.58,28.75,14.97l.48-2.26s-12.6-6.03-20.09-15.54Z"/>
                    <polygon class="cls-54" points="50.32 114 49.68 120.38 48.15 119.56 50.32 114"/>
                    <path class="cls-26" d="M66.62,125.33s1.66-.74,2.29-.78c0,0,3.19-.67,3.7-.73,0,0,.45,.62-.38,1.07-.84,.44-1.99,.72-1.99,.72,0,0,1.34,.46,2.24,.42,.91-.04,2.7-.06,3.12,.32,.42,.38-.1,.67-.1,.67,0,0-2.75,.04-3.35,.05-.52,.01-.38,.23-.38,.23,0,0,3.14,.68,3.7,.8,.56,.12,.71,.48,.43,.92,0,0-1.68-.35-2.73-.47-.37-.04-1.58-.42-1.6,0,0,0,2.63,.86,3.09,.95,.46,.09,.6,.53,.22,.85l-3.66-.89s-.27-.01-.22,.16c.04,.16,1.53,1.1,1.72,1.16,.18,.06,.75,.29,.49,.72,0,0-.11,.13-.64-.08-.53-.21-3.08-1.12-3.08-1.12,0,0-1.74-.43-3.23-1.78-1.5-1.36-1.28-2.14-1.12-1l.63-.9,.83-1.28Z"/>
                    <polygon class="cls-29" points="66.24 128.55 67.11 125.05 65.3 124.51 64.35 127.99 66.24 128.55"/>
                  </g>
                  <path class="cls-57" d="M45.37,109.54s-.13,4.37-3.63,8.92c-1.72-1.47-2.97-3.01-2.97-3.01l2.09-2.09"/>
                </g>
                <path class="cls-64" d="M2.32,165.4l-2.32,.05,.22,9.61,2.25-6.81c.08-.25,.11-.52,.08-.78l-.23-2.07Z"/>
                <path class="cls-39" d="M22.77,140.33l3.93,16.44s-11.47,1-24.91,8.66l.8,2.68,35.99-6.64,.64-3.82-3.3-8.7"/>
                <path class="cls-62" d="M22.77,140.33s7.36,10.92,18.31,21.11c0,0-8.37,11.15-8.86,26.5l2.1,1.1,14.11-27.41-6.16-21.97-19.5,.68Z"/>
                <g>
                  <polygon class="cls-47" points="50.53 113.55 48.23 120.08 46.03 118.8 44.43 113.27 44.36 107.61 50.53 113.55"/>
                  <path class="cls-29" d="M46.26,133.19s-1.8-7.43-.32-13.01c.97-.68,2.09-2.19,2.54-2.82,.19-4.42-3.36-9.05-4.06-9.74-3.13-1.22-1.92-1.74-6.31-.69-1.19,.28-2.43,.84-3.31,1.94-.46,3.06-3.51,9.53-4.28,21.11,7.22,6.78,15.74,3.21,15.74,3.21Z"/>
                  <g>
                    <path class="cls-49" d="M41.2,105.79l.27-2.19,1.83,3.71,.24,.35,.83-.04c.28,.25,.36,.35,.53,.56,1.93-2.13,2.87-4.12,3.58-10.66,.4-3.7-1.96-6.81-6.84-6.43-5.2,.4-4.94,4.13-5.74,6.94-1.59,5.65-6.24,6.69-6.24,6.69l6.24,3.14s1.02-.55,2.2-.93c1.18-.37,0,0,0,0l3.09-1.14Z"/>
                    <path class="cls-59" d="M47.84,97.3s.97,1.78,1.04,3.15h-1.48l.43-3.15Z"/>
                    <path class="cls-4" d="M47.96,101.62c0,.06-.17,1.3-.17,1.3l-2.14-.46-.19-1.09,.27-.21,1.69,.1,.55,.36Z"/>
                    <path class="cls-26" d="M43.54,104.85l4.01-.09c.12-1.21,.19-1.43,.27-2.01-1.48,.1-1.98-1.07-1.98-1.07h2.13c.51-4.78-.15-5.95-.15-5.95l-.26-.58c-.68,2.36-3.76,4.64-5.34,4.64-.28-1.25-1.51-2.27-2.36-1.25-.62,.74,.03,2.61,.87,2.76-.53,2.02-1.46,4.2-1.46,4.2l-1.14,1.41s-.25,.08-.73,.24c-.47,.17-.93,.41-.93,.41l7.86,5.4,.05-5.36-.83-.3v-2.47Z"/>
                  </g>
                </g>
                <g>
                  <path class="cls-34" d="M78.37,128.42c-.67-4.07-4.54-6.85-8.61-6.18l-19.76,3.24-9.46,1.55-1.47,.24c-3.7-3.39-8.86-5.13-14.2-4.25-9.25,1.52-15.51,10.24-13.99,19.49,1.52,9.25,10.24,15.51,19.49,13.99,7.7-1.26,13.31-7.53,14.1-14.93l7.18-1.18,2.49-.41,.73,4.42c.28,1.73,1.93,2.91,3.66,2.62,1.73-.28,2.91-1.93,2.62-3.65l-.73-4.42,2.69-.44,.6-.1,.73,4.42c.28,1.73,1.93,2.91,3.65,2.62,1.73-.28,2.91-1.93,2.62-3.66l-.73-4.42,.65-.11,1.33-.22,1.31-.22,.73,4.42c.28,1.73,1.93,2.91,3.65,2.62,1.73-.28,2.91-1.93,2.62-3.66l-.73-4.42-.7-4.25-.51-3.1s0,0,0-.01c0,0,0-.02,0-.03Zm-59.54,15.56c-1.49,.24-2.9-.76-3.14-2.25s.76-2.9,2.25-3.14c1.49-.24,2.9,.76,3.14,2.25,.24,1.49-.76,2.9-2.25,3.14Z"/>
                  <path class="cls-52" d="M70.89,124.91l-26.57,4.36c-1,.16-1.68,1.11-1.51,2.11,.16,1,1.11,1.68,2.11,1.51l26.57-4.36c1-.16,1.68-1.11,1.51-2.11-.16-1-1.11-1.68-2.11-1.51Zm-2.16,5.44l-24.54,4.03c-.47,.08-.8,.53-.72,1,.08,.47,.53,.8,1,.72l24.54-4.03c.47-.08,.8-.53,.72-1-.08-.47-.53-.8-1-.72Z"/>
                  <path class="cls-52" d="M25.01,125.98c-7.64,1.26-12.82,8.47-11.57,16.11,1.26,7.64,8.47,12.82,16.11,11.57,7.64-1.26,12.82-8.47,11.57-16.11-1.25-7.64-8.47-12.82-16.11-11.57Zm-6.18,18c-1.49,.24-2.9-.76-3.14-2.25s.76-2.9,2.25-3.14c1.49-.24,2.9,.76,3.14,2.25,.24,1.49-.76,2.9-2.25,3.14Z"/>
                </g>
                <polygon class="cls-64" points="32.16 187.92 31.77 190.2 41.24 191.84 34.84 188.05 32.16 187.92"/>
              </g>
              <g>
                <path class="cls-11" d="M37.79,119.22s-5.75,9.9-.76,25.56l-2.72,.58s-8.04-13.73-.46-33.33c0,0,5.1-.32,3.93,7.19Z"/>
                <path class="cls-26" d="M37.15,119s-7.51,12.74,1.21,28.4l-2.92,2.23s-12.15-19.71-.62-39.39c0,0,3.29,2.23,2.33,8.76Z"/>
                <polygon class="cls-54" points="35.9 121.8 30.64 120.98 31.04 119.3 35.9 121.8"/>
                <path class="cls-26" d="M36.91,145.44l1.45,1.96,1.55-.68,2.63-.73s-.1,1.15-.7,1.54c-.66,.43-.99,.51-.99,.51l.47,.63,1.06-.54-.67,2.06-2.5,2.51-2.49-.48-1.27-2.59-1.12-3.21,2.59-.97Z"/>
              </g>
            </g>
            <path class="cls-26" d="M65.05,123.02l.65-.81s1.62-1.35,3.72-1.22c1.87,.11,2.39,1.2,2.39,1.2l-1.48,1.8-2.29,.29-.93,.6-1.03-.38,.84-1.76-1.87,.27Z"/>
          </g>
          <g class="cls-18">
            <rect class="cls-2" x="127.33" y="46.2" width="47.35" height="47.35" rx="8.57" ry="8.57"/>
            <path class="cls-55" d="M163.95,46.2h-25.89c-5.93,0-10.73,4.8-10.73,10.73v7.5c0-5.93,4.8-10.73,10.73-10.73h25.89c5.93,0,10.73,4.8,10.73,10.73v-7.5c0-5.93-4.8-10.73-10.73-10.73Z"/>
            <path class="cls-34" d="M154.17,25.69h-6.33c-7.66,0-13.89,6.23-13.89,13.89v8.69c0,1.89,1.53,3.42,3.42,3.42s3.42-1.53,3.42-3.42v-8.69c0-3.89,3.17-7.06,7.06-7.06h6.33c3.89,0,7.06,3.17,7.06,7.06v8.69c0,1.89,1.53,3.42,3.42,3.42s3.42-1.53,3.42-3.42v-8.69c0-7.66-6.23-13.89-13.89-13.89Z"/>
            <path class="cls-55" d="M159.04,69.86c0-4.44-3.6-8.03-8.03-8.03s-8.03,3.6-8.03,8.03c0,3.53,2.28,6.52,5.44,7.6v5.95c0,1.42,1.16,2.59,2.59,2.59s2.59-1.16,2.59-2.59v-5.95c3.17-1.08,5.45-4.07,5.45-7.6Z"/>
          </g>
          <g>
            <g>
              <g>
                <g>
                  <path class="cls-14" d="M154.88,173.84c-.73-1.45,.26-4.67,5.49-3.24,6.58,1.8,14.88,4.13,23.6-4.43l2.31,1.39s-6.92,13.07-23.35,10.33c-2.06-.34-6.61-1.19-8.04-4.05Z"/>
                  <path class="cls-12" d="M163.44,177.97c-1.04-4.48-3.93-7.48-3.93-7.48l-3.33,.22,.46,3.09c.18,1.18,.57,2.03,1.24,2.67,1.78,.84,3.83,1.22,5.03,1.42,.18,.03,.35,.05,.52,.07Z"/>
                  <path class="cls-60" d="M160.69,173.65s1.06,5.29-.75,9.11c-1.82,3.83-9.36,19.25-9.36,19.25,0,0-4.59,3.49-12.08-3.44,0,0,8.87-20.58,10.89-23.96,2.02-3.37,4.7-6.57,7.9-4.37l3.41,3.4Z"/>
                  <path class="cls-9" d="M158.04,186.71l-3.59-4.98-4.37-5.3s-2.94,9.64,4.39,17.62c1.21-2.48,2.51-5.14,3.57-7.34Z"/>
                  <path class="cls-26" d="M156.25,165.47l-.98,5.08s.88,3.18,3.73,4.44l1.02-5.27-3.76-4.25Z"/>
                  <g>
                    <path class="cls-49" d="M159.67,156.85c-.88-1.68-4.7-1.53-6.09,.88,0,0-3.46,4.15,.8,7.97l1.33,1.29,.93-.05,1.21,1.09,1.11-5.6,4.15-3.13c-1.44-1.3-3.01-.51-3.46-2.43Z"/>
                    <polygon class="cls-65" points="163.46 160.98 165.17 164.04 163.58 164.41 163.46 160.98"/>
                    <path class="cls-26" d="M163.3,159.15l1.47,10.64s-6.31,2.69-8.52-2.64c0,0-2.82-.7-2.05-2.64,.12-.3,.59-.5,.99-.51,.36,0,.75,.19,.98,.46,.46,.53,.48,1.17,.48,1.17,0,0,.75-.66,.47-1.93,0,0,1.37-.94,1.05-2.36,0,0,1.59-1.44,2.33-2.32,0,0,1.39,.67,2.79,.13Z"/>
                    <path class="cls-49" d="M159.5,160.97c.11,.51-.21,1.01-.71,1.12-.51,.11-1.01-.21-1.12-.71-.11-.51,.21-1.01,.71-1.12s1.01,.21,1.12,.71Z"/>
                    <path class="cls-49" d="M160.72,160.18c.11,.51-.21,1.01-.71,1.12s-1.01-.21-1.12-.71c-.11-.51,.21-1.01,.71-1.12,.51-.11,1.01,.21,1.12,.71Z"/>
                    <path class="cls-49" d="M163.08,159.7c.11,.51-.21,1.01-.71,1.12-.51,.11-1.01-.21-1.12-.71s.21-1.01,.71-1.12c.51-.11,1.01,.21,1.12,.71Z"/>
                    <path class="cls-49" d="M161.1,159.14c.17,.76-.31,1.51-1.07,1.67s-1.51-.31-1.67-1.07c-.17-.76,.31-1.51,1.07-1.67,.76-.17,1.51,.31,1.67,1.07Z"/>
                    <path class="cls-4" d="M164.47,167.62l-.26-1.88-2.99,.47s.71,1.75,2.76,1.58c.18-.01,.32-.07,.49-.17Z"/>
                  </g>
                </g>
                <path class="cls-7" d="M159,174.99l-1.82,1.24s-4.76-5.47-1.66-7c0,0,.08,2.89,3.47,5.75Z"/>
                <path class="cls-7" d="M159.49,172.45l-.49,2.54,2.01,.58s.04-2.25-1.34-4.07l-.18,.95Z"/>
              </g>
              <path class="cls-48" d="M181.27,161.97l1.33,1.17-.19,3.73s.37,.2,.93,.42c.21-.48,.22-.6,.34-.84,.39,.11,.97,.34,1.51,.43,.43,.07,.84-.2,.95-.63,.12-.49,.19-1.2-.14-1.98-.44-1.04-2.56-3.07-4.73-2.31Z"/>
            </g>
            <g>
              <path class="cls-10" d="M189.19,224.67c0,2.34,5.1,4.24,11.39,4.24s11.39-1.9,11.39-4.24-5.1-4.24-11.39-4.24-11.39,1.9-11.39,4.24Z"/>
              <path class="cls-10" d="M119.77,224.67c0,1.17,2.55,2.12,5.69,2.12s5.69-.95,5.69-2.12-2.55-2.12-5.69-2.12-5.69,.95-5.69,2.12Z"/>
              <path class="cls-10" d="M142.02,224.67c0,.59,1.29,1.07,2.88,1.07s2.88-.48,2.88-1.07-1.29-1.07-2.88-1.07-2.88,.48-2.88,1.07Z"/>
              <path class="cls-10" d="M155.63,224.67c0,1.88,4.09,3.4,9.14,3.4s9.14-1.52,9.14-3.4-4.09-3.4-9.14-3.4-9.14,1.52-9.14,3.4Z"/>
              <g>
                <path class="cls-50" d="M259.06,161.91l.53-5.58-1.83-.54c-24.54-7.28-32.82-21.9-33.69-23.54l-1.7-3.24-3.12,1.92c-1.58,.97-16.17,9.32-40.98,3.06l-1.65-.22-2.6,4.82c-.23,.52-22.2,49.4,22.65,79.95l.97,.66,1.17-.07c54.16-3.4,60.2-56.65,60.27-57.21Z"/>
                <path class="cls-2" d="M258.72,164.77l.34-2.86-2.76-.82c-24.54-7.28-32.82-21.9-33.69-23.54l-1.7-3.24-3.12,1.92c-1.58,.97-16.17,9.32-40.98,3.06l-2.79-.71-1.17,2.63c-.23,.52-22.49,52.08,22.36,82.63l.97,.66,1.17-.07c54.16-3.4,61.32-59.1,61.39-59.66Z"/>
                <path class="cls-34" d="M252.82,165.21c-24.25-7.19-32.65-21.63-33.84-23.88-2.17,1.33-16.77,9.46-41.29,3.28,0,0-20.68,46.49,20.03,74.23,49.17-3.09,55.1-53.62,55.1-53.62Z"/>
                <path class="cls-2" d="M236.03,169.74c-1.04-1.83-2.73-3.14-4.76-3.7-2.03-.56-4.15-.29-5.98,.75l-23.85,13.58-2.71-4.76c-1.04-1.83-2.73-3.14-4.76-3.7-2.03-.56-4.15-.29-5.98,.75-1.83,1.04-3.14,2.73-3.7,4.76s-.29,4.15,.75,5.98l6.61,11.6c1.04,1.83,2.73,3.14,4.76,3.7,2.03,.56,4.15,.29,5.98-.75l30.69-17.48c1.83-1.04,3.14-2.73,3.7-4.76,.56-2.03,.29-4.15-.75-5.98Z"/>
                <path class="cls-16" d="M196.78,197.39c-1.61-.44-3.04-1.49-3.93-3.06l-6.61-11.6c-1.78-3.12-.69-7.1,2.43-8.87,3.12-1.78,7.1-.69,8.87,2.43l3.39,5.95,25.04-14.26c3.12-1.78,7.1-.69,8.87,2.43,1.78,3.12,.69,7.1-2.43,8.87l-30.69,17.48c-1.56,.89-3.34,1.06-4.94,.62Z"/>
              </g>
            </g>
            <g>
              <path class="cls-64" d="M159.83,223.71v.72c0,.3,.24,.54,.54,.54h10.83s-1.51-2.78-6.75-2.96c-2.76,.53-4.61,1.7-4.61,1.7Z"/>
              <path class="cls-69" d="M152.37,198.58l17.56,3.77-7.31,20.39-2.8,.97s-.26-13.23,3.8-16.9l-17.64,1.41"/>
            </g>
            <path class="cls-62" d="M152.37,198.58l-5.96,26.39-20.87-5.38,.29-1.79s13.08-1.32,16.11,1.91l-3.44-15.99s-.72-3.76,0-5.14c0,0,5.73,2.35,13.87,0Z"/>
            <path class="cls-64" d="M125.83,217.8h-2.43v7.17h4.76s-.46-1.75-2.61-2.31v-3.07l.29-1.79Z"/>
            <g>
              <path class="cls-14" d="M150.83,173.06c1.02-1.26,4.36-1.68,5.21,3.67,1.07,6.74,2.37,15.26,13.76,19.67l-.32,2.67s-14.77-.92-19.04-17.02c-.54-2.02-1.63-6.51,.38-9Z"/>
              <rect class="cls-46" x="168.52" y="196.11" width="1.55" height="2.97" transform="translate(40.73 -28.62) rotate(10.98)"/>
              <path class="cls-26" d="M173.96,200.07c-.85,.21-2.24,.11-2.24,.11l-2.02-1.05,.41-2.88,.42-.61,.87-.72,.35,.88,.7,.3s.68,.34,1.94,.37c1.03,.03,2.01-.13,2.01-.13l-.1,1.15-1.26,.41-.57,1.67-.49,.5Z"/>
            </g>
          </g>
          <g>
            <g>
              <path class="cls-10" d="M50.4,261.65c0,2.04,3.71,3.69,8.28,3.69s8.28-1.65,8.28-3.69-3.71-3.69-8.28-3.69-8.28,1.65-8.28,3.69Z"/>
              <path class="cls-38" d="M50.48,251.55l1.33,.31c1.23-1.14,3.84-1.92,6.87-1.92s5.64,.79,6.87,1.92l1.33-.31-.64,9.8h0c-.44,1.68-3.65,2.99-7.56,2.99s-7.12-1.31-7.56-2.99h0s-.64-9.8-.64-9.8Z"/>
              <path class="cls-41" d="M64.12,259.97v1.62s-1.32,.72-3.71,.7v-1.62s1.97,.13,3.71-.7Z"/>
              <path class="cls-3" d="M50.4,251.02c0,2.04,3.71,3.69,8.28,3.69s8.28-1.65,8.28-3.69-3.71-3.69-8.28-3.69-8.28,1.65-8.28,3.69Z"/>
              <path class="cls-56" d="M52.21,250.64c0,1.59,2.9,2.88,6.47,2.88s6.47-1.29,6.47-2.88-2.9-2.88-6.47-2.88-6.47,1.29-6.47,2.88Z"/>
            </g>
            <g>
              <path class="cls-24" d="M59.24,251.63v-51.78s5.99,5.06,5.55,11.68c-.44,6.62-4.34,8.71,.02,13.59,4.36,4.88,4.14,10.63,1.95,13.85-4.47,6.58-2.61,10.77-7.53,12.66Z"/>
              <path class="cls-66" d="M59.24,251.63v-51.78s-5.99,5.06-5.55,11.68c.44,6.62,4.34,8.71-.02,13.59-4.36,4.88-4.14,10.63-1.95,13.85,4.47,6.58,2.61,10.77,7.53,12.66Z"/>
            </g>
            <g>
              <path class="cls-42" d="M57.11,251.7l-10.72-32.26s4.78,1.91,5.88,6.13c1.1,4.22-.9,6.32,2.83,8.46,3.73,2.14,4.78,5.76,4.08,8.22-1.42,5.03,.61,7.25-2.07,9.44Z"/>
              <path class="cls-19" d="M57.11,251.7l-10.72-32.26s-2.68,4.39-1.04,8.43c1.64,4.03,4.51,4.53,2.8,8.47-1.71,3.94-.38,7.48,1.65,9.03,4.15,3.18,3.86,6.17,7.31,6.33Z"/>
            </g>
          </g>
          <g>
            <path class="cls-51" d="M152.08,162.04l12.08-2.23s-1.03-6.33-6.47-5.91c-7.22,.57-5.61,8.13-5.61,8.13Z"/>
            <g>
              <path class="cls-16" d="M163.52,154.89c.42-.19,.91,0,1.1,.42,.19,.42,0,.91-.42,1.1l-.68-1.51Z"/>
              <path class="cls-63" d="M163.4,154.04c-.83,.38-1.21,1.36-.83,2.19s1.36,1.21,2.19,.83l-1.36-3.02Z"/>
            </g>
            <path class="cls-20" d="M155.51,157.77l-.64,.12c-.54,.1-.92,.59-.89,1.13l.13,2.54,3.49-.59-.84-2.48c-.18-.52-.7-.83-1.24-.72Z"/>
            <path class="cls-34" d="M156.3,158.9c-.57,.1-.89-.11-.94-.15-.03,.05-.25,.36-.82,.49,0,0,.04,1.17,1.16,1.32,.98-.56,.59-1.66,.59-1.66Z"/>
            <path class="cls-22" d="M160.66,160.15l1.57-.13,1.53-1.66s.81,.04,2.92,.92c-3.66,.61-3.73,.62-3.73,.62l-2.29,.25Z"/>
            <path class="cls-7" d="M167.24,159.31l-15.18,2.86-.08-.39,14.65-2.76s.17-.03,.36,.06c.21,.1,.24,.22,.24,.22Z"/>
          </g>
          <path class="cls-7" d="M153.18,196.69s-5.58,2.02-13.09-1.77c0,0-1.3,.85-1.59,3.67,0,0,7.11,3.48,13.87,0,0,0,.67-.33,.81-1.89Z"/>
          <path class="cls-14" d="M140.58,199.9h0c-.23-.06-.36-.3-.29-.53l1.11-3.86c.06-.23,.3-.36,.53-.29h0c.23,.06,.36,.3,.29,.53l-1.11,3.86c-.06,.23-.3,.36-.53,.29Z"/>
          <path class="cls-14" d="M145.28,200.99h0c-.23-.03-.4-.25-.37-.48l.53-3.98c.03-.23,.25-.4,.48-.37h0c.23,.03,.4,.25,.37,.48l-.53,3.98c-.03,.23-.25,.4-.48,.37Z"/>
          <path class="cls-14" d="M149,200.12h0c-.23-.02-.41-.22-.39-.46l.19-2.57c.02-.23,.22-.41,.46-.39h0c.23,.02,.41,.22,.39,.46l-.19,2.57c-.02,.23-.22,.41-.46,.39Z"/>
          <path class="cls-14" d="M151.2,199.45h0c-.23-.02-.4-.24-.38-.47l.2-1.87c.02-.23,.24-.4,.47-.38h0c.23,.02,.4,.24,.38,.47l-.2,1.87c-.02,.23-.24,.4-.47,.38Z"/>
          <path class="cls-14" d="M152.81,198.78h0c-.23-.04-.39-.26-.34-.5l.26-1.45c.04-.23,.26-.39,.5-.34h0c.23,.04,.39,.26,.34,.5l-.26,1.45c-.04,.23-.26,.39-.5,.34Z"/>
          <g>
            <g>
              <path class="cls-30" d="M122.26,149.7c-.1,.19-.4,.34-.66,.34s-.38-.15-.28-.34c.1-.19,.4-.34,.66-.34s.38,.15,.28,.34Z"/>
              <path class="cls-30" d="M121.96,148.97l.5-1.33c.07-.19,.36-.37,.63-.39,.28-.02,.44,.11,.37,.3-.01,.03-.03,.06-.05,.09l-.96,1.33c-.07,.1-.23,.17-.36,.16-.11-.01-.16-.08-.13-.16Z"/>
            </g>
            <path class="cls-68" d="M125.09,151.04h-8.05c-.13,0-.23-.05-.24-.14-.02-.08,.04-.19,.15-.27l6.86-5.14c.11-.08,.26-.14,.39-.14h0c.13,0,.23,.05,.25,.14l1.19,5.14c.02,.08-.04,.19-.15,.27-.11,.08-.26,.14-.39,.14Zm-7.12-.54h6.78l-1-4.33-5.78,4.33Z"/>
          </g>
          <path class="cls-47" d="M30.59,118.9c1.04,.99,2.96,2.43,5.74,3,.77-1.73,1.46-2.68,1.46-2.68,.96-6.53-2.99-10.35-2.99-10.35-2,3.41-3.34,6.78-4.2,10.03Z"/>
        </g>
      </g>
    </g>
  </g>
</svg>