<?xml version="1.0" encoding="UTF-8"?>
<svg id="Layer_2" data-name="Layer 2" xmlns="http://www.w3.org/2000/svg" viewBox="0 0 750 750">
  <defs>
    <style>
      .cls-1 {
        fill: #fffe4e;
      }

      .cls-2 {
        fill: #ea403f;
      }
    </style>
  </defs>
  <g id="Layer_1-2" data-name="Layer 1">
    <g>
      <path class="cls-2" d="M375,0C167.9,0,0,167.9,0,375s167.9,375,375,375,375-167.9,375-375S582.1,0,375,0Zm121.5,547.1l-121.5-86.5-121.6,86.5,45.9-140.7-121-89.8h151.3l45.4-138.3,46.7,138.3h149.9l-121,89.8,45.9,140.7Z"/>
      <polygon class="cls-1" points="450.6 406.4 496.5 547.1 375 460.6 253.4 547.1 299.4 406.4 178.3 316.6 329.6 316.6 375 178.3 421.7 316.6 571.7 316.6 450.6 406.4"/>
    </g>
  </g>
</svg>